#N canvas 933 246 830 610 10;
#X declare -path ./rj;
#X declare -path ./nplib;
#X obj 179 38 tables;
#N canvas 446 70 563 655 routeMatrix 0;
#X obj 116 115 vradio 15 1 0 12 empty empty empty 0 -8 0 10 -262144
-1 -1 7;
#X obj 131 115 vradio 15 1 0 12 empty empty empty 0 -8 0 10 -262144
-1 -1 7;
#X obj 146 115 vradio 15 1 0 12 empty empty empty 0 -8 0 10 -262144
-1 -1 2;
#X obj 161 115 vradio 15 1 0 12 empty empty empty 0 -8 0 10 -262144
-1 -1 8;
#X obj 176 115 vradio 15 1 0 12 empty empty empty 0 -8 0 10 -262144
-1 -1 8;
#X obj 191 115 vradio 15 1 0 12 empty empty empty 0 -8 0 10 -262144
-1 -1 6;
#X obj 206 115 vradio 15 1 0 12 empty empty empty 0 -8 0 10 -262144
-1 -1 10;
#X obj 101 115 vradio 15 1 0 12 empty empty empty 0 -8 0 10 -262144
-1 -1 4;
#X msg 101 366 \; fx0 \$1;
#X msg 116 306 \; fx1 \$1;
#X msg 131 326 \; fx2 \$1;
#X msg 146 346 \; fx3 \$1;
#X msg 161 366 \; fx4 \$1;
#X msg 206 346 \; fx7 \$1;
#X msg 191 326 \; fx6 \$1;
#X msg 176 306 \; fx5 \$1;
#X obj 101 -67 f;
#X obj 131 -67 + 1;
#X obj 98 -170 t b b;
#X obj 98 -110 until;
#X msg 145 -103 0;
#X obj 101 -35 t f b;
#X obj 101 22 pack f f;
#X obj 98 -194 r change-p;
#X obj 101 48 route 0 1 2 3 4 5 6 7;
#X obj 221 115 vradio 15 1 0 12 empty empty empty 0 -8 0 10 -232576
-1 -1 0;
#X msg 98 -146 8;
#X obj 128 -2 random 12;
#X connect 0 0 9 0;
#X connect 1 0 10 0;
#X connect 2 0 11 0;
#X connect 3 0 12 0;
#X connect 4 0 15 0;
#X connect 5 0 14 0;
#X connect 6 0 13 0;
#X connect 7 0 8 0;
#X connect 16 0 17 0;
#X connect 16 0 21 0;
#X connect 17 0 16 1;
#X connect 18 0 26 0;
#X connect 18 1 20 0;
#X connect 19 0 16 0;
#X connect 20 0 16 1;
#X connect 21 0 22 0;
#X connect 21 1 27 0;
#X connect 22 0 24 0;
#X connect 23 0 18 0;
#X connect 24 0 7 0;
#X connect 24 1 0 0;
#X connect 24 2 1 0;
#X connect 24 3 2 0;
#X connect 24 4 3 0;
#X connect 24 5 4 0;
#X connect 24 6 5 0;
#X connect 24 7 6 0;
#X connect 25 0 6 0;
#X connect 25 0 5 0;
#X connect 25 0 4 0;
#X connect 25 0 3 0;
#X connect 25 0 2 0;
#X connect 25 0 1 0;
#X connect 25 0 0 0;
#X connect 25 0 7 0;
#X connect 26 0 19 0;
#X connect 27 0 22 1;
#X coords 0 -1 1 1 137 195 1 100 100;
#X restore 26 38 pd routeMatrix;
#X text 10 55 M;
#X text 10 132 S;
#X text 10 152 A;
#X text 10 142 H;
#X text 10 162 P;
#X text 10 171 E;
#X text 177 21 SHAPES;
#N canvas 129 52 723 620 events 0;
#X obj 334 70 loadbang;
#X obj 295 147 rc-dust;
#X obj 295 178 bng 15 250 50 0 empty empty empty 17 7 0 10 -262144
-1 -1;
#X text 122 157 RANDOMIZE MODULATION;
#X text 122 170 SHAPE ROUTING;
#X obj 105 122 tgl 15 0 empty empty empty 17 7 0 10 -262144 -1 -1 1
1;
#X obj 105 161 tgl 15 0 empty empty empty 17 7 0 10 -262144 -1 -1 1
1;
#X obj 465 207 rc-dust;
#X obj 465 238 bng 15 250 50 0 empty empty empty 17 7 0 10 -262144
-1 -1;
#X obj 105 42 loadbang;
#X obj 105 196 tgl 15 0 empty empty empty 17 7 0 10 -262144 -1 -1 1
1;
#X text 122 191 RANDOMIZE THESE?;
#X obj 504 128 loadbang;
#X obj 105 344 rc-dust;
#X msg 144 292 2000;
#X obj 105 375 bng 15 250 50 0 empty empty empty 17 7 0 10 -262144
-1 -1;
#X obj 144 265 loadbang;
#X msg 504 155 20000;
#X msg 334 95 5000;
#X msg 465 275 \; change-p bang;
#X msg 295 280 \; allhit bang;
#X text 122 118 RANDOMIZE TABLE-READER;
#X text 122 131 SPEED/DIRECTION;
#X obj -26 433 sel 0 1;
#X obj 105 401 random 2;
#X connect 0 0 18 0;
#X connect 1 0 2 0;
#X connect 2 0 20 0;
#X connect 5 0 1 0;
#X connect 6 0 7 0;
#X connect 7 0 8 0;
#X connect 8 0 19 0;
#X connect 9 0 10 0;
#X connect 10 0 13 0;
#X connect 12 0 17 0;
#X connect 13 0 15 0;
#X connect 14 0 13 1;
#X connect 15 0 24 0;
#X connect 16 0 14 0;
#X connect 17 0 7 1;
#X connect 18 0 1 1;
#X connect 23 0 5 0;
#X connect 23 1 6 0;
#X connect 24 0 23 0;
#X coords 0 -1 1 1 180 120 1 100 100;
#X restore -179 38 pd events;
#N canvas 523 249 450 300 quantize 0;
#X obj 106 153 tgl 15 0 empty empty empty 17 7 0 10 -262144 -1 -1 0
1;
#X text 103 136 on/off;
#X floatatom 149 152 5 0 0 0 - - -;
#X text 149 136 bpm;
#X obj 200 195 metro 125;
#X obj 194 232 s so-metro;
#X obj 194 263 s so-metro-on;
#X obj 78 253 /;
#X msg 54 222 1000;
#X obj 63 202 t b f;
#X obj 151 42 loadbang;
#X msg 153 68 130;
#X obj 140 178 / 15;
#X text 102 118 (1/16th-notes);
#X connect 0 0 6 0;
#X connect 0 0 4 0;
#X connect 2 0 12 0;
#X connect 4 0 5 0;
#X connect 7 0 4 1;
#X connect 8 0 7 0;
#X connect 9 0 8 0;
#X connect 9 1 7 1;
#X connect 10 0 11 0;
#X connect 11 0 2 0;
#X connect 12 0 9 0;
#X coords 0 -1 1 1 90 70 1 100 100;
#X restore -179 208 pd quantize;
#X obj -178 380 bng 60 250 50 0 go empty go! 67 26 0 25 -258113 -1
-1;
#X obj 397 482 image ./nplib/hcf.gif;
#X obj 42 447 cnv 15 120 71 empty empty empty 20 12 0 14 -257985 -66577
0;
#X text 53 454 visuals by;
#X text 53 474 Antonio Roberts;
#X text 53 494 hellocatfood.com;
#X obj 282 -70 cnv 15 120 71 empty empty empty 20 12 0 14 -257985 -66577
0;
#X text 293 -63 audio by;
#X text 293 -43 Joe Newlin;
#X text 293 -23 joenewlin.net;
#N canvas 571 441 450 300 guts 0;
#X obj 100 100 soundoutput;
#X obj 100 56 catch~ o;
#N canvas 237 276 520 400 revCTL 0;
#X text -32 -495 Defaults:;
#X obj -31 -420 g_hsl dry 0 1;
#X obj -31 -380 g_hsl amp 0 100;
#X obj -31 -340 g_hsl hall 0 100;
#X obj -31 -300 g_hsl freq 20 22050;
#X obj -31 -260 g_hsl damp 0 100;
#X text -107 -374 Amplitude;
#X text -108 -334 Room Size;
#X text -157 -295 Filter Frequency;
#X text -94 -253 Damping;
#X obj -31 -477 loadbang;
#X text -120 -413 Dry/Wet Mix;
#X obj -31 -216 outlet;
#X msg -31 -456 dry 0.7 \, amp 100 \, hall 80 \, freq 6000 \, damp
60;
#X connect 1 0 2 0;
#X connect 2 0 3 0;
#X connect 3 0 4 0;
#X connect 4 0 5 0;
#X connect 5 0 12 0;
#X connect 10 0 13 0;
#X connect 13 0 1 0;
#X restore 176 57 pd revCTL;
#X obj 101 78 e_reverb verb;
#N canvas 403 211 291 483 instrument 0;
#X obj 17 158 makenote 20 1000;
#X obj 17 185 pack;
#X obj 17 13 r synthnote;
#X obj 17 36 list trim;
#X obj 17 59 route freq;
#X obj 164 192 r \$0-control;
#X obj 17 131 m_majorscale 48;
#X obj 20 309 sConvert_3 fx0 freq 12 0 synthnote;
#X obj 19 273 throw~ o;
#X obj 18 244 *~ 1;
#X obj 17 221 u_makepoly 8 1 s_spad ps1;
#N canvas 20 84 1081 586 s_spad-control 0;
#X msg 186 132 save;
#X obj 575 9 r \$0-GUI;
#X obj 144 272 u_cocollect;
#X obj 186 193 t a b;
#X obj 186 59 bng 64 250 50 0 empty empty empty 17 7 0 10 -4034 -1
-1;
#X obj 144 505 s \$0-GUI;
#X obj 575 528 s \$0-control;
#X symbolatom 350 271 20 0 0 0 - - -;
#X obj 452 248 s \$0-GUI;
#X obj 350 200 nbx 3 20 0 256 0 0 empty empty empty 0 -8 0 16 -260097
-262144 -1 3 256;
#X obj 350 177 pgmin 1;
#X obj 307 157 hradio 15 1 0 5 empty empty empty 0 -8 0 10 -262144
-1 -1 3;
#X msg 144 317 mod3d 0 \, mod3c 0 \, mod3b 0.520079 \, mod3a 0 \, mod2d
0 \, mod2c 0 \, mod2b 0 \, mod2a 0 \, mod1d 0 \, mod1c 0.284409 \,
mod1b 0.103622 \, mod1a 0.724882 \, osc3d 0 \, osc3c 0 \, osc3b 0 \,
osc3a 0 \, osc2d 0 \, osc2c 0 \, osc2b 0 \, osc2a 1 \, osc1d 0.646142
\, osc1c 0.974882 \, osc1b 0.244094 \, osc1a 0.228346 \, env3r 0 \,
env3s 0 \, env3d 0 \, env3a 0 \, env2r 0.0244882 \, env2s 0.992992
\, env2d 0.0708661 \, env2a 0.00787402 \, env1r 0.00952756 \, env1s
0.889764 \, env1d 0.111024 \, env1a 0.0173228 \,;
#X obj 575 56 g_synthcontrol;
#N canvas 0 0 1152 704 spad_presets 0;
#X obj 91 26 inlet;
#X obj 134 647 outlet name;
#X obj 118 611 symbol;
#X obj 217 646 outlet parms;
#X obj 151 566 route name;
#X obj 589 225 loadbang;
#X text 584 171 set up the interface to be human readable and show
which controls are actually used;
#X text 586 201 Requires modified [g-hsl];
#X obj 90 52 sel 0 1 2 3 4 5 6 7 8 9 10 11 12;
#X msg 584 255 env1a color 128 \, env1a label AMP-ATTACK \, env1d color
128 \, env1d label AMP-DECAY \, env1r color 128 \, env1r label AMP-REL
\, env1s color 128 \, env1s label AMP-SUS \, env2a color 128 \, env2a
label FLT-ATTACK \, env2d color 128 \, env2d label FLT-DECAY \, env2r
color 128 \, env2r label FLT-REL \, env2s color 128 \, env2s label
FLT-SUS \, env3a color 2 \, env3a label _ \, env3d color 2 \, env3d
label _ \, env3r color 2 \, env3r label _ \, env3s color 2 \, env3s
label _ \, mod1a color 128 \, mod1a label LFO-FREQ \, mod1b color 128
\, mod1b label VIB-AMT \, mod1c color 128 \, mod1c label VIB-ONSET
\, mod1d color 128 \, mod1d label SLIDE \, mod2a color 2 \, mod2a label
_ \, mod2b color 2 \, mod2b label _ \, mod2c color 2 \, mod2c label
_ \, mod2d color 2 \, mod2d label _ \, mod3a color 2 \, mod3a label
_ \, mod3b color 128 \, mod3b label VOLUME \, mod3c color 2 \, mod3c
label _ \, mod3d color 2 \, mod3d label _ \, osc1a color 128 \, osc1a
label DETUNE-FREQ \, osc1b color 128 \, osc1b label RES \, osc1c color
128 \, osc1c label CUT \, osc1d color 128 \, osc1d label FLT-ENV \,
osc2a color 128 \, osc2a label COARSE \, osc2b color 2 \, osc2b label
_ \, osc2c color 2 \, osc2c label _ \, osc2d color 2 \, osc2d label
_ \, osc3a color 2 \, osc3a label _ \, osc3b color 2 \, osc3b label
_ \, osc3c color 2 \, osc3c label _ \, osc3d color 2 \, osc3d label
_;
#X msg 91 285 mod3d 0 \, mod3c 0 \, mod3b 0.173622 \, mod3a 0 \, mod2d
0 \, mod2c 0 \, mod2b 0 \, mod2a 0 \, mod1d 0.867795 \, mod1c 0.465512
\, mod1b 0.08 \, mod1a 0.000472441 \, osc3d 0 \, osc3c 0 \, osc3b 0
\, osc3a 0 \, osc2d 0 \, osc2c 0 \, osc2b 0 \, osc2a 0.496063 \, osc1d
0.000472441 \, osc1c 0.998504 \, osc1b 0.975118 \, osc1a 0.991339 \,
env3r 0 \, env3s 0 \, env3d 0 \, env3a 0 \, env2r 0.0559843 \, env2s
0.0796063 \, env2d 0.0872441 \, env2a 0.197402 \, env1r 0.0410236 \,
env1s 0.904567 \, env1d 0.0874016 \, env1a 0.000314961 \,;
#X msg 98 282 name floppybass \, mod3d 0 \, mod3c 0 \, mod3b 0.520079
\, mod3a 0 \, mod2d 0 \, mod2c 0 \, mod2b 0 \, mod2a 0 \, mod1d 0.867795
\, mod1c 0.465512 \, mod1b 0.08 \, mod1a 0.000472441 \, osc3d 0 \,
osc3c 0 \, osc3b 0 \, osc3a 0 \, osc2d 0 \, osc2c 0 \, osc2b 0 \, osc2a
0.181102 \, osc1d 0.54378 \, osc1c 0.83315 \, osc1b 0.353071 \, osc1a
0 \, env3r 0 \, env3s 0 \, env3d 0 \, env3a 0 \, env2r 0.0559843 \,
env2s 0.0796063 \, env2d 0.11874 \, env2a 0.0320472 \, env1r 0.0410236
\, env1s 0 \, env1d 0.189764 \, env1a 0.000314961 \,;
#X msg 110 265 name sweeppad \, mod3d 0 \, mod3c 0 \, mod3b 0.520079
\, mod3a 0 \, mod2d 0 \, mod2c 0 \, mod2b 0 \, mod2a 0 \, mod1d 0.867795
\, mod1c 0.465512 \, mod1b 0.08 \, mod1a 0.000472441 \, osc3d 0 \,
osc3c 0 \, osc3b 0 \, osc3a 0 \, osc2d 0 \, osc2c 0 \, osc2b 0 \, osc2a
0.472441 \, osc1d 0.54378 \, osc1c 0.83315 \, osc1b 0.668032 \, osc1a
0.0866142 \, env3r 0 \, env3s 0 \, env3d 0 \, env3a 0 \, env2r 0.0717323
\, env2s 0.174094 \, env2d 0.378583 \, env2a 0.378504 \, env1r 0.11189
\, env1s 0.929134 \, env1d 0.205512 \, env1a 0.488504 \,;
#X msg 107 261 name acid \, mod3d 0 \, mod3c 0 \, mod3b 0.520079 \,
mod3a 0 \, mod2d 0 \, mod2c 0 \, mod2b 0 \, mod2a 0 \, mod1d 0.883543
\, mod1c 0.465512 \, mod1b 0.08 \, mod1a 0.000472441 \, osc3d 0 \,
osc3c 0 \, osc3b 0 \, osc3a 0 \, osc2d 0 \, osc2c 0 \, osc2b 0 \, osc2a
0.779528 \, osc1d 0.921732 \, osc1c 0.470945 \, osc1b 0.99874 \, osc1a
0.0866142 \, env3r 0 \, env3s 0 \, env3d 0 \, env3a 0 \, env2r 0.0323622
\, env2s 0.0481102 \, env2d 0.0708661 \, env2a 0.000472441 \, env1r
0.0410236 \, env1s 0.322835 \, env1d 0.111024 \, env1a 0.0015748 \,
;
#X msg 128 264 name stringypad \, mod3d 0 \, mod3c 0 \, mod3b 0.520079
\, mod3a 0 \, mod2d 0 \, mod2c 0 \, mod2b 0 \, mod2a 0 \, mod1d 0 \,
mod1c 0.465512 \, mod1b 0.166614 \, mod1a 0.654016 \, osc3d 0 \, osc3c
0 \, osc3b 0 \, osc3a 0 \, osc2d 0 \, osc2c 0 \, osc2b 0 \, osc2a 0.779528
\, osc1d 0.669764 \, osc1c 0.596929 \, osc1b 0.699528 \, osc1a 0.228346
\, env3r 0 \, env3s 0 \, env3d 0 \, env3a 0 \, env2r 0.0323622 \, env2s
0.567795 \, env2d 0.0708661 \, env2a 0.630394 \, env1r 0.0410236 \,
env1s 0.322835 \, env1d 0.111024 \, env1a 0.080315 \,;
#X msg 139 269 name solo \, mod3d 0 \, mod3c 0 \, mod3b 0.520079 \,
mod3a 0 \, mod2d 0 \, mod2c 0 \, mod2b 0 \, mod2a 0 \, mod1d 0 \, mod1c
0.284409 \, mod1b 0.103622 \, mod1a 0.724882 \, osc3d 0 \, osc3c 0
\, osc3b 0 \, osc3a 0 \, osc2d 0 \, osc2c 0 \, osc2b 0 \, osc2a 1 \,
osc1d 0.646142 \, osc1c 0.974882 \, osc1b 0.244094 \, osc1a 0.228346
\, env3r 0 \, env3s 0 \, env3d 0 \, env3a 0 \, env2r 0.0244882 \, env2s
0.992992 \, env2d 0.0708661 \, env2a 0.00787402 \, env1r 0.00952756
\, env1s 0.889764 \, env1d 0.111024 \, env1a 0.0173228 \,;
#X connect 0 0 8 0;
#X connect 2 0 1 0;
#X connect 4 0 2 0;
#X connect 4 1 3 0;
#X connect 5 0 9 0;
#X connect 8 0 10 0;
#X connect 8 1 11 0;
#X connect 8 2 12 0;
#X connect 8 3 13 0;
#X connect 8 4 14 0;
#X connect 8 5 15 0;
#X connect 9 0 3 0;
#X connect 10 0 4 0;
#X connect 11 0 4 0;
#X connect 12 0 4 0;
#X connect 13 0 4 0;
#X connect 14 0 4 0;
#X connect 15 0 4 0;
#X restore 350 227 pd spad_presets;
#X obj 280 89 bng 15 250 50 0 empty empty empty 17 7 0 10 -4034 -1
-1;
#X obj 296 15 loadbang;
#X obj 299 44 del 500;
#X msg 298 114 3;
#X obj 402 68 r go;
#X connect 0 0 3 0;
#X connect 1 0 13 0;
#X connect 2 0 12 0;
#X connect 3 1 2 1;
#X connect 4 0 0 0;
#X connect 9 0 14 0;
#X connect 10 0 9 0;
#X connect 11 0 9 0;
#X connect 12 0 5 0;
#X connect 13 0 6 0;
#X connect 14 0 7 0;
#X connect 14 1 8 0;
#X connect 15 0 18 0;
#X connect 16 0 17 0;
#X connect 17 0 15 0;
#X connect 18 0 11 0;
#X connect 19 0 15 0;
#X restore 140 39 pd s_spad-control;
#X obj 18 330 sConvert_3 fx1 freq 12 0 synthnote;
#X obj 22 391 sConvert_3 fx4 freq 12 -12 synthnote;
#X obj 22 413 sConvert_3 fx5 freq 36 0 synthnote;
#X obj 20 371 sConvert_3 fx3 freq 12 -12 synthnote;
#X obj 23 435 sConvert_3 fx6 freq 12 0 synthnote;
#X obj 24 458 sConvert_3 fx7 freq 36 0 synthnote;
#X obj 20 350 sConvert_3 fx2 freq 30 0 synthnote;
#X connect 0 0 1 0;
#X connect 0 1 1 1;
#X connect 1 0 10 0;
#X connect 2 0 3 0;
#X connect 3 0 4 0;
#X connect 4 0 6 0;
#X connect 5 0 10 1;
#X connect 6 0 0 0;
#X connect 9 0 8 0;
#X connect 10 0 9 0;
#X restore -66 131 pd instrument;
#N canvas 0 50 259 280 tablereaders 0;
#X obj 5 -279 slowtablereader fxshape0;
#X obj 5 -219 slowtablereader fxshape3;
#X obj 5 -159 slowtablereader fxshape6;
#X obj 5 -119 slowtablereader fxshape8;
#X obj 5 -259 slowtablereader fxshape1;
#X obj 5 -239 slowtablereader fxshape2;
#X obj 5 -199 slowtablereader fxshape4;
#X obj 5 -179 slowtablereader fxshape5;
#X obj 5 -139 slowtablereader fxshape7;
#X obj 5 -99 slowtablereader fxshape10;
#X obj 5 -79 slowtablereader fxshape9;
#X obj 5 -59 slowtablereader fxshape11;
#X restore -66 106 pd tablereaders;
#X obj -70 78 declare -path ./rj;
#X obj -48 209 r go;
#X msg -48 233 \; allhit bang \; change-p bang;
#X obj -88 55 declare -path ./nplib;
#X connect 1 0 3 0;
#X connect 2 0 3 1;
#X connect 3 0 0 0;
#X connect 3 1 0 1;
#X connect 7 0 8 0;
#X coords 0 -1 1 1 110 40 2 100 100;
#X restore -178 328 pd guts;
#X text 177 9 MELODY;
#X text 10 64 E;
#X text 10 74 L;
#X text 10 84 O;
#X text 10 94 D;
#X text 10 104 Y;
#X text 23 238 VOICE;
#X obj 47 -34 image ./nplib/jn.gif;
#X obj -31 380 cnv 15 330 60 empty empty NeonPlastic 18 30 0 45 -229561
-262144 0;
#N canvas 987 82 929 997 neonplastic_visuals 0;
#X obj 338 124 gemwin;
#X obj 35 219 t a;
#X msg 498 33 lighting 1;
#X obj 719 217 loadbang;
#X msg 719 247 \; a-init 0.5;
#N canvas 146 260 666 300 rotate 0;
#X obj 24 6 inlet;
#X obj 21 269 outlet;
#X obj 1 197 rotateXYZ;
#X obj 94 4 r allhit;
#X obj 95 24 bng 15 250 50 0 empty empty empty 17 7 0 10 -262144 -1
-1;
#X obj 140 82 random 360;
#X obj 79 80 random 50;
#X obj 276 4 r allhit;
#X obj 277 24 bng 15 250 50 0 empty empty empty 17 7 0 10 -262144 -1
-1;
#X obj 322 82 random 360;
#X obj 261 80 random 50;
#X obj 443 4 r allhit;
#X obj 444 24 bng 15 250 50 0 empty empty empty 17 7 0 10 -262144 -1
-1;
#X obj 489 82 random 360;
#X obj 428 80 random 50;
#X obj 552 14 r change-p;
#X obj 354 20 r change-p;
#X obj 167 22 r change-p;
#X obj 45 107 vsine 42 90 rand;
#X obj 227 107 vsine 42 90 rand;
#X obj 394 107 vsine 42 90 rand;
#X connect 0 0 2 0;
#X connect 2 0 1 0;
#X connect 3 0 4 0;
#X connect 4 0 5 0;
#X connect 4 0 6 0;
#X connect 4 0 18 0;
#X connect 5 0 18 2;
#X connect 6 0 18 1;
#X connect 7 0 8 0;
#X connect 8 0 9 0;
#X connect 8 0 10 0;
#X connect 8 0 19 0;
#X connect 9 0 19 2;
#X connect 10 0 19 1;
#X connect 11 0 12 0;
#X connect 12 0 13 0;
#X connect 12 0 14 0;
#X connect 12 0 20 0;
#X connect 13 0 20 2;
#X connect 14 0 20 1;
#X connect 15 0 20 3;
#X connect 16 0 19 3;
#X connect 17 0 18 3;
#X connect 18 0 2 1;
#X connect 19 0 2 2;
#X connect 20 0 2 3;
#X restore 35 -13 pd rotate;
#X obj 35 -40 gemhead 1000;
#X obj 35 129 scaleXYZ;
#X floatatom 50 99 5 0 0 0 - - -;
#X obj 498 13 loadbang;
#N canvas 867 82 929 997 box_back 0;
#X obj 54 33 inlet;
#X obj 54 73 separator;
#X obj 54 95 rotateXYZ 0 0 0;
#X obj 54 235 translateXYZ 0 0 -1;
#X obj 54 645 colorRGB;
#X obj 54 807 scaleXYZ 1 1 0;
#X obj 54 837 alpha;
#X obj 54 959 cube;
#X msg 94 919 draw line;
#X obj 94 959 cube;
#X msg 164 918 width 4;
#X obj 94 879 loadbang;
#X floatatom 135 717 3 0 0 0 - - -;
#X floatatom 65 575 3 0 0 0 - - -;
#X floatatom 89 575 3 0 0 0 - - -;
#X floatatom 113 575 3 0 0 0 - - -;
#X floatatom 137 575 3 0 0 0 - - -;
#X obj 197 527 r a-init;
#X obj 135 677 r fx7GEM;
#X obj 400 300 cnv 15 100 100 empty box_back empty 20 12 0 14 -135616
-166441 0;
#N canvas 1280 497 450 300 box_color 0;
#X obj 45 8 inlet;
#X obj 185 142 t b f;
#X obj 125 200 +;
#X obj 125 225 t b f;
#X obj 125 256 +;
#X obj 45 120 * -65536;
#X obj 125 120 * -256;
#X obj 185 120 * -1;
#X obj 125 287 - 1;
#X obj 125 8 inlet;
#X obj 185 8 inlet;
#X obj 125 309 outlet;
#X obj 45 60 * 255;
#X obj 125 60 * 255;
#X obj 185 60 * 255;
#X obj 45 30 clip 0 1;
#X obj 125 30 clip 0 1;
#X obj 185 30 clip 0 1;
#X obj 45 82 int;
#X obj 125 82 int;
#X obj 185 82 int;
#X connect 0 0 15 0;
#X connect 1 0 2 0;
#X connect 1 1 2 1;
#X connect 2 0 3 0;
#X connect 3 0 4 0;
#X connect 3 1 4 1;
#X connect 4 0 8 0;
#X connect 5 0 4 0;
#X connect 6 0 2 0;
#X connect 7 0 1 0;
#X connect 8 0 11 0;
#X connect 9 0 16 0;
#X connect 10 0 17 0;
#X connect 12 0 18 0;
#X connect 13 0 19 0;
#X connect 14 0 20 0;
#X connect 15 0 12 0;
#X connect 16 0 13 0;
#X connect 17 0 14 0;
#X connect 18 0 5 0;
#X connect 19 0 6 0;
#X connect 20 0 7 0;
#X restore 155 607 pd box_color;
#X msg 155 629 \; box_back color \$1 1;
#X obj 137 527 r fx4GEM;
#X obj 91 135 r fx4GEM;
#X obj 91 199 * 2.2;
#X msg 91 157 \$1 500;
#X obj 91 179 line;
#X obj 113 449 * 3;
#X obj 65 279 * 1.3;
#X obj 113 427 r fx7GEM;
#X obj 89 365 r fx3GEM;
#X msg 89 385 \$1 \, 0 500;
#X obj 89 407 line;
#X obj 135 697 * 2;
#X obj 81 739 line;
#X obj 81 677 r fx3GEM;
#X obj 81 697 * 1.9;
#X msg 81 717 \$1 500;
#X floatatom 81 759 3 0 0 0 - - -;
#X obj 65 257 r fx2GEM;
#X obj 65 331 line;
#X obj 113 501 line;
#X msg 113 479 \$1 500;
#X msg 65 309 \$1 \, 0 500;
#X connect 0 0 1 0;
#X connect 1 0 2 0;
#X connect 2 0 3 0;
#X connect 3 0 4 0;
#X connect 4 0 5 0;
#X connect 5 0 6 0;
#X connect 6 0 7 0;
#X connect 6 0 9 0;
#X connect 8 0 9 0;
#X connect 10 0 9 0;
#X connect 11 0 8 0;
#X connect 11 0 10 0;
#X connect 12 0 5 3;
#X connect 13 0 4 1;
#X connect 13 0 20 0;
#X connect 14 0 4 2;
#X connect 14 0 20 1;
#X connect 15 0 4 3;
#X connect 15 0 20 2;
#X connect 16 0 4 4;
#X connect 17 0 16 0;
#X connect 18 0 33 0;
#X connect 20 0 21 0;
#X connect 22 0 16 0;
#X connect 23 0 25 0;
#X connect 24 0 3 1;
#X connect 24 0 3 3;
#X connect 25 0 26 0;
#X connect 26 0 24 0;
#X connect 27 0 42 0;
#X connect 28 0 43 0;
#X connect 29 0 27 0;
#X connect 30 0 31 0;
#X connect 31 0 32 0;
#X connect 32 0 14 0;
#X connect 33 0 12 0;
#X connect 34 0 38 0;
#X connect 35 0 36 0;
#X connect 36 0 37 0;
#X connect 37 0 34 0;
#X connect 38 0 5 1;
#X connect 39 0 28 0;
#X connect 40 0 13 0;
#X connect 41 0 15 0;
#X connect 42 0 41 0;
#X connect 43 0 40 0;
#X coords 0 -1 1 1 100 100 1 400 300;
#X restore 136 280 pd box_back;
#N canvas 330 82 929 997 box_top 0;
#X obj 54 33 inlet;
#X obj 54 73 separator;
#X obj 54 233 translateXYZ 0 0 -1;
#X obj 54 695 colorRGB;
#X obj 54 717 scaleXYZ 1 1 0;
#X obj 54 747 alpha;
#X obj 54 869 cube;
#X msg 94 829 draw line;
#X obj 94 869 cube;
#X msg 164 828 width 4;
#X obj 94 789 loadbang;
#X floatatom 135 687 3 0 0 0 - - -;
#X floatatom 65 465 3 0 0 0 - - -;
#X floatatom 89 465 3 0 0 0 - - -;
#X floatatom 113 465 3 0 0 0 - - -;
#X floatatom 137 465 3 0 0 0 - - -;
#X obj 197 425 r a-init;
#X obj 135 667 / 2;
#X obj 400 300 cnv 15 100 100 empty box_top empty 20 12 0 14 -1756
-166441 0;
#X obj 54 95 rotateXYZ 90 0 0;
#X msg 91 171 \$1 \, 0 500;
#X obj 91 127 r fx5GEM;
#X obj 137 425 r fx1GEM;
#X obj 135 587 r fx7GEM;
#X obj 135 627 line;
#N canvas 404 322 450 300 box_color 0;
#X obj 45 8 inlet;
#X obj 185 152 t b f;
#X obj 125 210 +;
#X obj 125 235 t b f;
#X obj 125 266 +;
#X obj 45 130 * -65536;
#X obj 125 130 * -256;
#X obj 185 130 * -1;
#X obj 125 297 - 1;
#X obj 125 8 inlet;
#X obj 185 8 inlet;
#X obj 125 319 outlet;
#X obj 45 60 * 255;
#X obj 125 60 * 255;
#X obj 185 60 * 255;
#X obj 45 30 clip 0 1;
#X obj 125 30 clip 0 1;
#X obj 185 30 clip 0 1;
#X obj 45 82 int;
#X obj 125 82 int;
#X obj 185 82 int;
#X connect 0 0 15 0;
#X connect 1 0 2 0;
#X connect 1 1 2 1;
#X connect 2 0 3 0;
#X connect 3 0 4 0;
#X connect 3 1 4 1;
#X connect 4 0 8 0;
#X connect 5 0 4 0;
#X connect 6 0 2 0;
#X connect 7 0 1 0;
#X connect 8 0 11 0;
#X connect 9 0 16 0;
#X connect 10 0 17 0;
#X connect 12 0 18 0;
#X connect 13 0 19 0;
#X connect 14 0 20 0;
#X connect 15 0 12 0;
#X connect 16 0 13 0;
#X connect 17 0 14 0;
#X connect 18 0 5 0;
#X connect 19 0 6 0;
#X connect 20 0 7 0;
#X restore 155 497 pd box_color;
#X msg 155 519 \; box_top color \$1 1;
#X obj 89 323 r fx6GEM;
#X obj 113 353 r fx6GEM;
#X obj 65 253 r fx1GEM;
#X obj 113 395 line;
#X msg 65 273 \$1 \, 0 500;
#X obj 65 295 line;
#X obj 91 193 line;
#X obj 91 149 * 1.2;
#X msg 135 607 \$1 250;
#X msg 113 373 \$1 500;
#X connect 0 0 1 0;
#X connect 1 0 19 0;
#X connect 2 0 3 0;
#X connect 3 0 4 0;
#X connect 4 0 5 0;
#X connect 5 0 6 0;
#X connect 5 0 8 0;
#X connect 7 0 8 0;
#X connect 9 0 8 0;
#X connect 10 0 7 0;
#X connect 10 0 9 0;
#X connect 11 0 4 3;
#X connect 12 0 3 1;
#X connect 12 0 25 0;
#X connect 13 0 3 2;
#X connect 13 0 25 1;
#X connect 14 0 3 3;
#X connect 14 0 25 2;
#X connect 15 0 3 4;
#X connect 16 0 15 0;
#X connect 17 0 11 0;
#X connect 19 0 2 0;
#X connect 20 0 33 0;
#X connect 21 0 34 0;
#X connect 22 0 15 0;
#X connect 23 0 35 0;
#X connect 24 0 17 0;
#X connect 25 0 26 0;
#X connect 27 0 13 0;
#X connect 28 0 36 0;
#X connect 29 0 31 0;
#X connect 30 0 14 0;
#X connect 31 0 32 0;
#X connect 32 0 12 0;
#X connect 33 0 2 1;
#X connect 33 0 2 2;
#X connect 34 0 20 0;
#X connect 35 0 24 0;
#X connect 36 0 30 0;
#X coords 0 -1 1 1 100 100 1 400 300;
#X restore 136 381 pd box_top;
#N canvas 128 82 929 997 box_right 0;
#X obj 54 33 inlet;
#X obj 54 73 separator;
#X obj 54 645 colorRGB;
#X obj 54 807 scaleXYZ 1 1 0;
#X obj 54 837 alpha;
#X obj 54 929 cube;
#X msg 94 899 draw line;
#X obj 94 929 cube;
#X msg 164 898 width 4;
#X obj 94 869 loadbang;
#X floatatom 135 777 3 0 0 0 - - -;
#X floatatom 65 465 3 0 0 0 - - -;
#X floatatom 89 465 3 0 0 0 - - -;
#X floatatom 113 465 3 0 0 0 - - -;
#X floatatom 137 465 3 0 0 0 - - -;
#X obj 197 387 r a-init;
#X obj 400 300 cnv 15 100 100 empty box_right empty 20 12 0 14 -103656
-166441 0;
#X text 123 74 right;
#X obj 54 95 rotateXYZ 0 90 0;
#X obj 65 147 r fx3GEM;
#X obj 89 241 r fx4GEM;
#X obj 113 271 r fx5GEM;
#X obj 137 387 r fx6GEM;
#X obj 135 757 r fx5GEM;
#N canvas 1282 492 450 300 box_color 0;
#X obj 45 8 inlet;
#X obj 185 162 t b f;
#X obj 125 220 +;
#X obj 125 245 t b f;
#X obj 125 276 +;
#X obj 45 140 * -65536;
#X obj 125 140 * -256;
#X obj 185 140 * -1;
#X obj 125 307 - 1;
#X obj 125 8 inlet;
#X obj 185 8 inlet;
#X obj 125 329 outlet;
#X obj 45 60 * 255;
#X obj 125 60 * 255;
#X obj 185 60 * 255;
#X obj 45 30 clip 0 1;
#X obj 125 30 clip 0 1;
#X obj 185 30 clip 0 1;
#X obj 45 82 int;
#X obj 125 82 int;
#X obj 185 82 int;
#X connect 0 0 15 0;
#X connect 1 0 2 0;
#X connect 1 1 2 1;
#X connect 2 0 3 0;
#X connect 3 0 4 0;
#X connect 3 1 4 1;
#X connect 4 0 8 0;
#X connect 5 0 4 0;
#X connect 6 0 2 0;
#X connect 7 0 1 0;
#X connect 8 0 11 0;
#X connect 9 0 16 0;
#X connect 10 0 17 0;
#X connect 12 0 18 0;
#X connect 13 0 19 0;
#X connect 14 0 20 0;
#X connect 15 0 12 0;
#X connect 16 0 13 0;
#X connect 17 0 14 0;
#X connect 18 0 5 0;
#X connect 19 0 6 0;
#X connect 20 0 7 0;
#X restore 155 497 pd box_color;
#X msg 155 519 \; box_right color \$1 1;
#X msg 65 167 \$1 \, 0 500;
#X obj 65 189 line;
#X obj 113 313 line;
#X obj 65 211 + 0.3;
#X msg 108 685 \$1 \, 0 500;
#X obj 108 707 line;
#X obj 108 665 r fx1GEM;
#X obj 108 729 + 1.2;
#X msg 113 291 \$1 500;
#X floatatom 108 777 3 0 0 0 - - -;
#X obj 54 115 translateXYZ 0 0 1;
#X connect 0 0 1 0;
#X connect 1 0 18 0;
#X connect 2 0 3 0;
#X connect 3 0 4 0;
#X connect 4 0 5 0;
#X connect 4 0 7 0;
#X connect 6 0 7 0;
#X connect 8 0 7 0;
#X connect 9 0 6 0;
#X connect 9 0 8 0;
#X connect 10 0 3 3;
#X connect 11 0 2 1;
#X connect 11 0 24 0;
#X connect 12 0 2 2;
#X connect 12 0 24 1;
#X connect 13 0 2 3;
#X connect 13 0 24 2;
#X connect 14 0 2 4;
#X connect 15 0 14 0;
#X connect 18 0 36 0;
#X connect 19 0 26 0;
#X connect 20 0 12 0;
#X connect 21 0 34 0;
#X connect 22 0 14 0;
#X connect 23 0 10 0;
#X connect 24 0 25 0;
#X connect 26 0 27 0;
#X connect 27 0 29 0;
#X connect 28 0 13 0;
#X connect 29 0 11 0;
#X connect 30 0 31 0;
#X connect 31 0 33 0;
#X connect 32 0 30 0;
#X connect 33 0 35 0;
#X connect 34 0 28 0;
#X connect 35 0 3 2;
#X connect 36 0 2 0;
#X coords 0 -1 1 1 100 100 1 400 300;
#X restore 237 482 pd box_right;
#N canvas 754 82 929 997 box_centre 0;
#X obj 54 33 inlet;
#X obj 54 73 separator;
#X obj 54 445 colorRGB;
#X obj 54 657 scaleXYZ 1 1 0;
#X obj 54 677 alpha;
#X obj 54 769 cube;
#X msg 94 729 draw line;
#X obj 94 769 cube;
#X msg 164 728 width 4;
#X obj 94 689 loadbang;
#X floatatom 135 587 3 0 0 0 - - -;
#X floatatom 65 395 3 0 0 0 - - -;
#X floatatom 89 395 3 0 0 0 - - -;
#X floatatom 113 395 3 0 1 0 - - -;
#X floatatom 137 395 3 0 0 0 - - -;
#X obj 197 367 r a-init;
#X obj 400 300 cnv 15 100 100 empty box_centre empty 20 12 0 14 -173633
-166441 0;
#X obj 135 517 r fx7GEM;
#X obj 135 557 line;
#X obj 54 115 translateXYZ 0 0 1;
#X obj 54 95 rotateXYZ 0 0 0;
#X obj 65 147 r fx5GEM;
#X obj 113 267 r fx7GEM;
#N canvas 1278 502 450 300 box_color 0;
#X obj 45 8 inlet;
#X obj 185 152 t b f;
#X obj 125 210 +;
#X obj 125 235 t b f;
#X obj 125 266 +;
#X obj 45 130 * -65536;
#X obj 125 130 * -256;
#X obj 185 130 * -1;
#X obj 125 297 - 1;
#X obj 125 8 inlet;
#X obj 185 8 inlet;
#X obj 125 319 outlet;
#X obj 45 60 * 255;
#X obj 125 60 * 255;
#X obj 185 60 * 255;
#X obj 45 30 clip 0 1;
#X obj 125 30 clip 0 1;
#X obj 185 30 clip 0 1;
#X obj 45 82 int;
#X obj 125 82 int;
#X obj 185 82 int;
#X connect 0 0 15 0;
#X connect 1 0 2 0;
#X connect 1 1 2 1;
#X connect 2 0 3 0;
#X connect 3 0 4 0;
#X connect 3 1 4 1;
#X connect 4 0 8 0;
#X connect 5 0 4 0;
#X connect 6 0 2 0;
#X connect 7 0 1 0;
#X connect 8 0 11 0;
#X connect 9 0 16 0;
#X connect 10 0 17 0;
#X connect 12 0 18 0;
#X connect 13 0 19 0;
#X connect 14 0 20 0;
#X connect 15 0 12 0;
#X connect 16 0 13 0;
#X connect 17 0 14 0;
#X connect 18 0 5 0;
#X connect 19 0 6 0;
#X connect 20 0 7 0;
#X restore 155 427 pd box_color;
#X msg 155 449 \; box_centre color \$1 1;
#X obj 137 367 r fx6GEM;
#X obj 89 177 r fx1GEM;
#X obj 113 329 * 2;
#X obj 89 199 * 1.2;
#X obj 81 477 r fx5GEM;
#X msg 113 287 \$1 \, 0 500;
#X obj 113 309 line;
#X obj 108 617 +;
#X msg 135 537 \$1 500;
#X floatatom 108 637 3 0 0 0 - - -;
#X msg 81 497 \$1 \, 0 500;
#X obj 81 519 line;
#X floatatom 81 539 3 0 0 0 - - -;
#X connect 0 0 1 0;
#X connect 1 0 20 0;
#X connect 2 0 3 0;
#X connect 3 0 4 0;
#X connect 4 0 5 0;
#X connect 4 0 7 0;
#X connect 6 0 7 0;
#X connect 8 0 7 0;
#X connect 9 0 6 0;
#X connect 9 0 8 0;
#X connect 10 0 3 3;
#X connect 10 0 32 0;
#X connect 11 0 2 1;
#X connect 11 0 23 0;
#X connect 11 0 32 1;
#X connect 12 0 2 2;
#X connect 12 0 23 1;
#X connect 13 0 2 3;
#X connect 13 0 23 2;
#X connect 14 0 2 4;
#X connect 15 0 14 0;
#X connect 17 0 33 0;
#X connect 18 0 10 0;
#X connect 19 0 2 0;
#X connect 20 0 19 0;
#X connect 21 0 11 0;
#X connect 22 0 30 0;
#X connect 23 0 24 0;
#X connect 25 0 14 0;
#X connect 26 0 28 0;
#X connect 27 0 13 0;
#X connect 28 0 12 0;
#X connect 29 0 35 0;
#X connect 30 0 31 0;
#X connect 31 0 27 0;
#X connect 32 0 34 0;
#X connect 33 0 18 0;
#X connect 34 0 3 2;
#X connect 35 0 36 0;
#X connect 36 0 37 0;
#X connect 37 0 3 1;
#X coords 0 -1 1 1 100 100 1 400 300;
#X restore 136 482 pd box_centre;
#N canvas 982 82 929 997 box_bottom 0;
#X obj 54 33 inlet;
#X obj 54 73 separator;
#X obj 54 545 colorRGB;
#X obj 54 567 scaleXYZ 1 1 0;
#X obj 54 597 alpha;
#X obj 54 719 cube;
#X msg 94 679 draw line;
#X obj 94 719 cube;
#X msg 164 678 width 4;
#X obj 94 639 loadbang;
#X floatatom 135 537 3 0 0 0 - - -;
#X floatatom 65 365 3 0 0 0 - - -;
#X floatatom 89 365 3 0 0 0 - - -;
#X floatatom 113 365 3 0 0 0 - - -;
#X floatatom 137 365 3 0 0 0 - - -;
#X obj 197 311 r a-init;
#X obj 400 300 cnv 15 100 100 empty box_bottom empty 20 12 0 14 -2710
-166441 0;
#X msg 65 167 \$1 \, 0 500;
#X obj 54 95 rotateXYZ 0 0 0;
#X obj 65 147 r fx6GEM;
#X obj 113 281 r fx1GEM;
#X obj 137 311 r fx5GEM;
#X obj 135 507 r fx5GEM;
#N canvas 1276 507 450 300 box_color 0;
#X obj 45 8 inlet;
#X obj 185 162 t b f;
#X obj 125 220 +;
#X obj 125 245 t b f;
#X obj 125 276 +;
#X obj 45 140 * -65536;
#X obj 125 140 * -256;
#X obj 185 140 * -1;
#X obj 125 307 - 1;
#X obj 125 8 inlet;
#X obj 185 8 inlet;
#X obj 125 329 outlet;
#X obj 45 60 * 255;
#X obj 125 60 * 255;
#X obj 185 60 * 255;
#X obj 45 30 clip 0 1;
#X obj 125 30 clip 0 1;
#X obj 185 30 clip 0 1;
#X obj 45 82 int;
#X obj 125 82 int;
#X obj 185 82 int;
#X connect 0 0 15 0;
#X connect 1 0 2 0;
#X connect 1 1 2 1;
#X connect 2 0 3 0;
#X connect 3 0 4 0;
#X connect 3 1 4 1;
#X connect 4 0 8 0;
#X connect 5 0 4 0;
#X connect 6 0 2 0;
#X connect 7 0 1 0;
#X connect 8 0 11 0;
#X connect 9 0 16 0;
#X connect 10 0 17 0;
#X connect 12 0 18 0;
#X connect 13 0 19 0;
#X connect 14 0 20 0;
#X connect 15 0 12 0;
#X connect 16 0 13 0;
#X connect 17 0 14 0;
#X connect 18 0 5 0;
#X connect 19 0 6 0;
#X connect 20 0 7 0;
#X restore 155 397 pd box_color;
#X msg 155 419 \; box_bottom color \$1 1;
#X obj 54 115 translateXYZ 0 0 1;
#X obj 65 189 line;
#X obj 89 251 r fx5GEM;
#X obj 65 211 * 2.5;
#X connect 0 0 1 0;
#X connect 1 0 18 0;
#X connect 2 0 3 0;
#X connect 3 0 4 0;
#X connect 4 0 5 0;
#X connect 4 0 7 0;
#X connect 6 0 7 0;
#X connect 8 0 7 0;
#X connect 9 0 6 0;
#X connect 9 0 8 0;
#X connect 10 0 3 3;
#X connect 11 0 2 1;
#X connect 11 0 23 0;
#X connect 12 0 2 2;
#X connect 12 0 23 1;
#X connect 13 0 2 3;
#X connect 13 0 23 2;
#X connect 14 0 2 4;
#X connect 15 0 14 0;
#X connect 17 0 26 0;
#X connect 18 0 25 0;
#X connect 19 0 17 0;
#X connect 20 0 13 0;
#X connect 21 0 14 0;
#X connect 22 0 10 0;
#X connect 23 0 24 0;
#X connect 25 0 2 0;
#X connect 26 0 28 0;
#X connect 27 0 12 0;
#X connect 28 0 11 0;
#X coords 0 -1 1 1 100 100 1 400 300;
#X restore 136 582 pd box_bottom;
#N canvas 160 82 929 997 box_left 0;
#X obj 54 33 inlet;
#X obj 54 73 separator;
#X obj 54 425 colorRGB;
#X obj 54 727 scaleXYZ 1 1 0;
#X obj 54 757 alpha;
#X obj 54 879 cube;
#X msg 94 839 draw line;
#X obj 94 879 cube;
#X msg 164 838 width 4;
#X obj 94 799 loadbang;
#X floatatom 65 365 3 0 1 0 - - -;
#X floatatom 95 365 3 0 1 0 - - -;
#X floatatom 125 365 3 0 1 0 - - -;
#X floatatom 155 365 3 0 1 0 - - -;
#X obj 215 327 r a-init;
#X obj 400 300 cnv 15 100 100 empty box_left empty 20 12 0 14 -209300
-262144 0;
#X obj 135 667 r fx5GEM;
#X obj 95 235 r fx3GEM;
#X obj 125 297 r fx4GEM;
#X obj 65 147 r fx2GEM;
#X obj 155 327 r fx5GEM;
#X obj 54 115 translateXYZ 0 0 1;
#X obj 54 95 rotateXYZ 0 -90 0;
#X msg 213 428 \; box_left color \$1;
#N canvas 967 583 450 300 box_color 0;
#X obj 45 8 inlet;
#X obj 125 8 inlet;
#X obj 185 8 inlet;
#X obj 185 142 t b f;
#X obj 125 170 +;
#X obj 125 195 t b f;
#X obj 125 226 +;
#X obj 45 120 * -65536;
#X obj 125 120 * -256;
#X obj 185 120 * -1;
#X obj 125 257 - 1;
#X obj 125 279 outlet;
#X obj 45 60 * 255;
#X obj 125 60 * 255;
#X obj 185 60 * 255;
#X obj 45 30 clip 0 1;
#X obj 125 30 clip 0 1;
#X obj 185 30 clip 0 1;
#X obj 45 82 int;
#X obj 125 82 int;
#X obj 185 82 int;
#X connect 0 0 15 0;
#X connect 1 0 16 0;
#X connect 2 0 17 0;
#X connect 3 0 4 0;
#X connect 3 1 4 1;
#X connect 4 0 5 0;
#X connect 5 0 6 0;
#X connect 5 1 6 1;
#X connect 6 0 10 0;
#X connect 7 0 6 0;
#X connect 8 0 4 0;
#X connect 9 0 3 0;
#X connect 10 0 11 0;
#X connect 12 0 18 0;
#X connect 13 0 19 0;
#X connect 14 0 20 0;
#X connect 15 0 12 0;
#X connect 16 0 13 0;
#X connect 17 0 14 0;
#X connect 18 0 7 0;
#X connect 19 0 8 0;
#X connect 20 0 9 0;
#X restore 213 398 pd box_color;
#X msg 95 255 \$1 \, 0 500;
#X obj 95 277 line;
#X msg 81 487 \$1 \, 0 500;
#X obj 81 509 line;
#X msg 65 167 \$1 \, 0 500;
#X obj 65 189 line;
#X obj 65 211 + 0.4;
#X msg 108 577 \$1 \, 0 500;
#X obj 108 599 line;
#X obj 108 639 * 1.3;
#X obj 81 467 r fx7GEM;
#X obj 108 557 r fx4GEM;
#X obj 108 619 + 0.3;
#X obj 81 531 + 0.2;
#X floatatom 81 697 3 0 1 0 - - -;
#X floatatom 108 697 3 0 1 0 - - -;
#X floatatom 135 697 3 0 1 0 - - -;
#X connect 0 0 1 0;
#X connect 1 0 22 0;
#X connect 2 0 3 0;
#X connect 3 0 4 0;
#X connect 4 0 5 0;
#X connect 4 0 7 0;
#X connect 6 0 7 0;
#X connect 8 0 7 0;
#X connect 9 0 6 0;
#X connect 9 0 8 0;
#X connect 10 0 2 1;
#X connect 10 0 24 0;
#X connect 11 0 2 2;
#X connect 11 0 24 1;
#X connect 12 0 2 3;
#X connect 12 0 24 2;
#X connect 13 0 2 4;
#X connect 14 0 13 0;
#X connect 16 0 41 0;
#X connect 17 0 25 0;
#X connect 18 0 12 0;
#X connect 19 0 29 0;
#X connect 20 0 13 0;
#X connect 21 0 2 0;
#X connect 22 0 21 0;
#X connect 24 0 23 0;
#X connect 25 0 26 0;
#X connect 26 0 11 0;
#X connect 27 0 28 0;
#X connect 28 0 38 0;
#X connect 29 0 30 0;
#X connect 30 0 31 0;
#X connect 31 0 10 0;
#X connect 32 0 33 0;
#X connect 33 0 37 0;
#X connect 34 0 40 0;
#X connect 35 0 27 0;
#X connect 36 0 32 0;
#X connect 37 0 34 0;
#X connect 38 0 39 0;
#X connect 39 0 3 1;
#X connect 40 0 3 2;
#X connect 41 0 3 3;
#X coords 0 -1 1 1 100 100 1 400 300;
#X restore 35 482 pd box_left;
#X obj 50 79 line;
#X msg 50 59 \$1 500;
#X obj 50 19 r fx4GEM;
#X obj 588 292 world_light;
#N canvas 138 280 666 300 rotate 0;
#X obj 21 6 inlet;
#X obj 21 269 outlet;
#X obj 21 197 rotateXYZ;
#X obj 94 4 r allhit;
#X obj 95 24 bng 15 250 50 0 empty empty empty 17 7 0 10 -262144 -1
-1;
#X obj 140 82 random 360;
#X obj 79 80 random 50;
#X obj 276 4 r allhit;
#X obj 277 24 bng 15 250 50 0 empty empty empty 17 7 0 10 -262144 -1
-1;
#X obj 322 82 random 360;
#X obj 261 80 random 50;
#X obj 443 4 r allhit;
#X obj 444 24 bng 15 250 50 0 empty empty empty 17 7 0 10 -262144 -1
-1;
#X obj 489 82 random 360;
#X obj 428 80 random 50;
#X obj 552 14 r change-p;
#X obj 354 20 r change-p;
#X obj 167 22 r change-p;
#X obj 45 107 vsine 42 90 rand;
#X obj 227 107 vsine 42 90 rand;
#X obj 394 107 vsine 42 90 rand;
#X connect 0 0 2 0;
#X connect 2 0 1 0;
#X connect 3 0 4 0;
#X connect 4 0 5 0;
#X connect 4 0 6 0;
#X connect 4 0 18 0;
#X connect 5 0 18 2;
#X connect 6 0 18 1;
#X connect 7 0 8 0;
#X connect 8 0 9 0;
#X connect 8 0 10 0;
#X connect 8 0 19 0;
#X connect 9 0 19 2;
#X connect 10 0 19 1;
#X connect 11 0 12 0;
#X connect 12 0 13 0;
#X connect 12 0 14 0;
#X connect 12 0 20 0;
#X connect 13 0 20 2;
#X connect 14 0 20 1;
#X connect 15 0 20 3;
#X connect 16 0 19 3;
#X connect 17 0 18 3;
#X connect 18 0 2 1;
#X connect 19 0 2 2;
#X connect 20 0 2 3;
#X restore 588 192 pd rotate;
#X obj 458 292 world_light;
#X msg 401 261 1 0 0;
#X msg 521 261 1 1 1;
#N canvas 249 274 666 300 rotate 0;
#X obj 24 6 inlet;
#X obj 21 269 outlet;
#X obj 1 197 rotateXYZ;
#X obj 94 4 r allhit;
#X obj 95 24 bng 15 250 50 0 empty empty empty 17 7 0 10 -262144 -1
-1;
#X obj 140 82 random 360;
#X obj 79 80 random 50;
#X obj 276 4 r allhit;
#X obj 277 24 bng 15 250 50 0 empty empty empty 17 7 0 10 -262144 -1
-1;
#X obj 322 82 random 360;
#X obj 261 80 random 50;
#X obj 443 4 r allhit;
#X obj 444 24 bng 15 250 50 0 empty empty empty 17 7 0 10 -262144 -1
-1;
#X obj 489 82 random 360;
#X obj 428 80 random 50;
#X obj 552 14 r change-p;
#X obj 354 20 r change-p;
#X obj 167 22 r change-p;
#X obj 45 107 vsine 42 90 rand;
#X obj 227 107 vsine 42 90 rand;
#X obj 394 107 vsine 42 90 rand;
#X connect 0 0 2 0;
#X connect 2 0 1 0;
#X connect 3 0 4 0;
#X connect 4 0 5 0;
#X connect 4 0 6 0;
#X connect 4 0 18 0;
#X connect 5 0 18 2;
#X connect 6 0 18 1;
#X connect 7 0 8 0;
#X connect 8 0 9 0;
#X connect 8 0 10 0;
#X connect 8 0 19 0;
#X connect 9 0 19 2;
#X connect 10 0 19 1;
#X connect 11 0 12 0;
#X connect 12 0 13 0;
#X connect 12 0 14 0;
#X connect 12 0 20 0;
#X connect 13 0 20 2;
#X connect 14 0 20 1;
#X connect 15 0 20 3;
#X connect 16 0 19 3;
#X connect 17 0 18 3;
#X connect 18 0 2 1;
#X connect 19 0 2 2;
#X connect 20 0 2 3;
#X restore 338 212 pd rotate;
#X obj 401 241 loadbang;
#X obj 521 241 loadbang;
#X obj 338 292 world_light;
#X obj 651 271 tripleRand;
#X obj 651 251 metro 1000;
#X obj 651 231 tgl 15 0 empty empty empty 17 7 0 10 -262144 -1 -1 1
1;
#X obj 651 211 loadbang;
#X obj 48 40 maxlib/scale 0 0.5 0.1 2.5 0;
#X obj 338 -10 r go;
#X msg 338 13 dimen 1024 768 \, create \, 1;
#X obj 338 164 gemhead;
#X obj 458 164 gemhead;
#X obj 588 164 gemhead;
#X connect 1 0 15 0;
#X connect 1 0 10 0;
#X connect 1 0 11 0;
#X connect 1 0 13 0;
#X connect 1 0 12 0;
#X connect 1 0 14 0;
#X connect 2 0 0 0;
#X connect 3 0 4 0;
#X connect 5 0 7 0;
#X connect 6 0 5 0;
#X connect 7 0 1 0;
#X connect 8 0 7 1;
#X connect 8 0 7 2;
#X connect 8 0 7 3;
#X connect 9 0 2 0;
#X connect 16 0 8 0;
#X connect 17 0 16 0;
#X connect 18 0 32 0;
#X connect 20 0 19 0;
#X connect 22 0 27 1;
#X connect 23 0 21 1;
#X connect 24 0 27 0;
#X connect 25 0 22 0;
#X connect 26 0 23 0;
#X connect 28 0 19 1;
#X connect 29 0 28 0;
#X connect 30 0 29 0;
#X connect 31 0 30 0;
#X connect 32 0 17 0;
#X connect 33 0 34 0;
#X connect 34 0 0 0;
#X connect 35 0 24 0;
#X connect 36 0 21 0;
#X connect 37 0 20 0;
#X coords 0 -1 1 1 302 402 2 35 280;
#X restore 319 38 pd neonplastic_visuals;
