#N canvas 89 92 653 638 10;
#X obj 103 122 tgl 15 0 empty empty empty 17 7 0 10 -262144 -1 -1 0
1;
#X obj 110 329 cos;
#X floatatom 112 248 0 0 0 0 - - -;
#X obj 112 288 * 6.28319;
#X obj 112 268 / 360;
#X text 175 288 2 x Pi;
#X floatatom 112 308 0 0 0 0 - - -;
#X text 175 308 Radian;
#X obj 104 223 mod 360;
#X obj 103 194 f;
#X obj 135 192 + 1;
#X obj 103 166 metro 10;
#X floatatom 311 258 5 0 0 0 - - -;
#X obj 310 232 / 360;
#X obj 314 186 * 1000;
#X floatatom 127 122 5 0 0 0 - - -;
#X obj 118 471 outlet;
#X obj 112 359 * 1;
#X obj 113 421 pack 0 5;
#X obj 118 447 line;
#X text 126 135 speed;
#X obj 125 18 loadbang;
#X text 160 135 range(0-to-x);
#X floatatom 165 122 5 0 0 0 - - -;
#X obj 333 328 / 2;
#X obj 113 393 +;
#X obj 138 67 \$1;
#X obj 181 70 \$2;
#X obj 246 14 inlet;
#X obj 320 17 inlet;
#X obj 47 25 inlet;
#X obj 201 491 <= 0.1;
#X obj 210 450 t f f;
#X obj 200 517 sel 1;
#X obj 246 542 f;
#X obj 248 594 sel 1;
#X obj 249 617 s \$3;
#X obj 248 571 >= 0.075;
#X obj 525 52 inlet;
#X msg 510 94 0;
#X connect 0 0 11 0;
#X connect 1 0 17 0;
#X connect 2 0 4 0;
#X connect 3 0 6 0;
#X connect 4 0 3 0;
#X connect 6 0 1 0;
#X connect 8 0 2 0;
#X connect 9 0 10 0;
#X connect 9 0 8 0;
#X connect 10 0 9 1;
#X connect 11 0 9 0;
#X connect 12 0 11 1;
#X connect 12 0 18 1;
#X connect 13 0 12 0;
#X connect 14 0 13 0;
#X connect 15 0 14 0;
#X connect 17 0 25 0;
#X connect 18 0 19 0;
#X connect 18 0 32 0;
#X connect 19 0 16 0;
#X connect 21 0 26 0;
#X connect 21 0 27 0;
#X connect 23 0 24 0;
#X connect 24 0 17 1;
#X connect 24 0 25 1;
#X connect 25 0 18 0;
#X connect 26 0 15 0;
#X connect 27 0 23 0;
#X connect 28 0 15 0;
#X connect 29 0 23 0;
#X connect 30 0 0 0;
#X connect 31 0 33 0;
#X connect 32 0 31 0;
#X connect 32 1 34 1;
#X connect 33 0 34 0;
#X connect 34 0 37 0;
#X connect 35 0 36 0;
#X connect 37 0 35 0;
#X connect 38 0 39 0;
#X connect 39 0 9 0;
#X coords 0 -1 1 1 150 60 1 100 100;
