#N canvas 186 4 858 798 10;
#X obj 720 18 r \$1;
#X obj 51 691 symbol \$2;
#X obj 51 713 pack symbol float;
#X obj 51 668 trigger bang float;
#X obj 51 735 s \$5;
#X obj 17 15 r fxshape0;
#X obj 720 49 s \$0onoff;
#X obj 51 111 spigot;
#X obj 84 86 tgl 15 0 empty empty empty 17 7 0 10 -262144 -1 -1 0 1
;
#X obj 84 15 r \$0onoff;
#X obj 84 48 == 0;
#X obj 181 111 spigot;
#X obj 214 86 tgl 15 0 empty empty empty 17 7 0 10 -262144 -1 -1 0
1;
#X obj 214 15 r \$0onoff;
#X obj 311 111 spigot;
#X obj 344 86 tgl 15 0 empty empty empty 17 7 0 10 -262144 -1 -1 0
1;
#X obj 344 15 r \$0onoff;
#X obj 441 111 spigot;
#X obj 474 86 tgl 15 0 empty empty empty 17 7 0 10 -262144 -1 -1 0
1;
#X obj 474 15 r \$0onoff;
#X obj 180 262 spigot;
#X obj 213 237 tgl 15 0 empty empty empty 17 7 0 10 -262144 -1 -1 0
1;
#X obj 213 166 r \$0onoff;
#X obj 310 262 spigot;
#X obj 343 237 tgl 15 0 empty empty empty 17 7 0 10 -262144 -1 -1 0
1;
#X obj 343 166 r \$0onoff;
#X obj 440 262 spigot;
#X obj 473 237 tgl 15 0 empty empty empty 17 7 0 10 -262144 -1 -1 0
1;
#X obj 473 166 r \$0onoff;
#X obj 570 262 spigot;
#X obj 603 237 tgl 15 0 empty empty empty 17 7 0 10 -262144 -1 -1 0
1;
#X obj 603 166 r \$0onoff;
#X obj 331 395 spigot;
#X obj 364 370 tgl 15 0 empty empty empty 17 7 0 10 -262144 -1 -1 0
1;
#X obj 364 299 r \$0onoff;
#X obj 461 395 spigot;
#X obj 494 370 tgl 15 0 empty empty empty 17 7 0 10 -262144 -1 -1 0
1;
#X obj 494 299 r \$0onoff;
#X obj 591 395 spigot;
#X obj 624 370 tgl 15 0 empty empty empty 17 7 0 10 -262144 -1 -1 0
1;
#X obj 624 299 r \$0onoff;
#X obj 147 15 r fxshape1;
#X obj 214 48 == 1;
#X obj 277 15 r fxshape2;
#X obj 344 48 == 2;
#X obj 407 15 r fxshape3;
#X obj 474 48 == 3;
#X obj 146 166 r fxshape4;
#X obj 213 199 == 4;
#X obj 343 199 == 5;
#X obj 276 166 r fxshape5;
#X obj 406 166 r fxshape6;
#X obj 473 199 == 6;
#X obj 536 166 r fxshape7;
#X obj 603 199 == 7;
#X obj 297 299 r fxshape8;
#X obj 364 332 == 8;
#X obj 427 299 r fxshape9;
#X obj 494 332 == 9;
#X obj 557 299 r fxshape10;
#X obj 624 332 == 10;
#X obj 721 395 spigot;
#X obj 754 370 tgl 15 0 empty empty empty 17 7 0 10 -262144 -1 -1 1
1;
#X obj 754 299 r \$0onoff;
#X obj 109 426 r so-metro;
#X msg 109 480 set NOPE;
#X msg 51 558 NOPE;
#X msg 51 479 set \$1;
#X obj 51 644 route float NOPE;
#X obj 126 529 r so-metro-on;
#X obj 128 552 tgl 15 0 empty empty empty 17 7 0 10 -262144 -1 -1 1
1;
#X obj 1 619 spigot;
#X obj 83 620 spigot;
#X obj 34 595 == 0;
#N canvas 255 158 450 517 range 0;
#X obj 22 29 inlet;
#X obj 22 485 outlet;
#X obj 153 165 random;
#X obj 186 28 loadbang;
#X obj 186 51 t b b;
#X obj 186 78 f \$3;
#X obj 222 79 f \$4;
#X obj 186 106 -;
#X obj 153 217 t b f;
#X obj 153 240 f \$3;
#X obj 153 268 -;
#X obj 153 192 + \$4;
#X obj 150 292 t b f;
#X obj 149 314 random;
#X obj 148 341 + \$4;
#X obj 22 295 *;
#X obj 22 451 +;
#X obj 116 31 r \$0onoff;
#X obj 116 54 change;
#X obj 116 80 bng 15 250 50 0 empty empty empty 17 7 0 10 -262144 -1
-1;
#X connect 0 0 15 0;
#X connect 2 0 11 0;
#X connect 2 0 15 1;
#X connect 3 0 4 0;
#X connect 4 0 5 0;
#X connect 4 1 6 0;
#X connect 5 0 7 0;
#X connect 6 0 7 1;
#X connect 7 0 2 1;
#X connect 8 0 9 0;
#X connect 8 1 10 1;
#X connect 9 0 10 0;
#X connect 10 0 12 0;
#X connect 11 0 8 0;
#X connect 12 0 13 0;
#X connect 12 1 13 1;
#X connect 13 0 14 0;
#X connect 14 0 16 1;
#X connect 15 0 16 0;
#X connect 16 0 1 0;
#X connect 17 0 18 0;
#X connect 18 0 19 0;
#X connect 19 0 2 0;
#X restore 51 352 pd range;
#X obj 109 456 trigger bang bang;
#X obj 51 328 t f;
#X obj 270 537 loadbang;
#X msg 270 565 0;
#X obj 687 299 r fxshape11;
#X obj 754 332 == 11;
#X obj 68 375 int;
#X obj 207 705 + 1;
#N canvas 373 225 539 446 thirds 0;
#X obj 97 -138 inlet;
#X obj 17 274 outlet;
#X obj 248 147 % 2;
#X obj 248 171 == 1;
#X obj 215 193 spigot;
#X obj 215 124 t f f;
#X floatatom 223 262 5 0 0 0 - - -;
#X obj 325 -114 r \$0onoff;
#X obj 324 -77 change;
#X obj 322 -47 b;
#X obj 291 -15 random 2;
#X obj 214 101 spigot;
#X obj 125 87 == 0;
#X obj 246 73 == 1;
#X obj 94 118 spigot;
#X floatatom 102 155 5 0 0 0 - - -;
#X obj 331 141 random 2;
#X obj 218 231 + 0;
#X obj 314 101 sel 1;
#X connect 0 0 11 0;
#X connect 0 0 14 0;
#X connect 2 0 3 0;
#X connect 3 0 4 1;
#X connect 4 0 17 0;
#X connect 5 0 4 0;
#X connect 5 1 2 0;
#X connect 7 0 8 0;
#X connect 8 0 9 0;
#X connect 9 0 10 0;
#X connect 10 0 12 0;
#X connect 10 0 13 0;
#X connect 10 0 18 0;
#X connect 11 0 5 0;
#X connect 12 0 14 1;
#X connect 13 0 11 1;
#X connect 14 0 15 0;
#X connect 14 0 1 0;
#X connect 16 0 17 1;
#X connect 17 0 1 0;
#X connect 17 0 6 0;
#X connect 18 0 16 0;
#X restore 195 672 pd thirds;
#N canvas 332 78 663 612 change 0;
#X obj -185 236 inlet;
#X obj -184 332 outlet;
#X obj -146 285 change;
#X text -30 234 possible to randomize this option;
#X connect 0 0 2 0;
#X connect 2 0 1 0;
#X restore 68 401 pd change;
#X obj 284 746 s \$1GEM;
#X obj 284 700 + 12;
#X obj 284 724 / 48;
#X connect 0 0 6 0;
#X connect 1 0 2 0;
#X connect 2 0 4 0;
#X connect 3 0 1 0;
#X connect 3 1 83 0;
#X connect 5 0 7 0;
#X connect 7 0 76 0;
#X connect 8 0 7 1;
#X connect 9 0 10 0;
#X connect 10 0 8 0;
#X connect 11 0 76 0;
#X connect 12 0 11 1;
#X connect 13 0 42 0;
#X connect 14 0 76 0;
#X connect 15 0 14 1;
#X connect 16 0 44 0;
#X connect 17 0 76 0;
#X connect 18 0 17 1;
#X connect 19 0 46 0;
#X connect 20 0 76 0;
#X connect 21 0 20 1;
#X connect 22 0 48 0;
#X connect 23 0 76 0;
#X connect 24 0 23 1;
#X connect 25 0 49 0;
#X connect 26 0 76 0;
#X connect 27 0 26 1;
#X connect 28 0 52 0;
#X connect 29 0 76 0;
#X connect 30 0 29 1;
#X connect 31 0 54 0;
#X connect 32 0 76 0;
#X connect 33 0 32 1;
#X connect 34 0 56 0;
#X connect 35 0 76 0;
#X connect 36 0 35 1;
#X connect 37 0 58 0;
#X connect 38 0 76 0;
#X connect 39 0 38 1;
#X connect 40 0 60 0;
#X connect 41 0 11 0;
#X connect 42 0 12 0;
#X connect 43 0 14 0;
#X connect 44 0 15 0;
#X connect 45 0 17 0;
#X connect 46 0 18 0;
#X connect 47 0 20 0;
#X connect 48 0 21 0;
#X connect 49 0 24 0;
#X connect 50 0 23 0;
#X connect 51 0 26 0;
#X connect 52 0 27 0;
#X connect 53 0 29 0;
#X connect 54 0 30 0;
#X connect 55 0 32 0;
#X connect 56 0 33 0;
#X connect 57 0 35 0;
#X connect 58 0 36 0;
#X connect 59 0 38 0;
#X connect 60 0 39 0;
#X connect 61 0 76 0;
#X connect 62 0 61 1;
#X connect 63 0 80 0;
#X connect 64 0 75 0;
#X connect 65 0 66 0;
#X connect 66 0 72 0;
#X connect 67 0 66 0;
#X connect 68 0 3 0;
#X connect 69 0 70 0;
#X connect 70 0 72 1;
#X connect 70 0 73 0;
#X connect 71 0 68 0;
#X connect 72 0 68 0;
#X connect 73 0 71 1;
#X connect 74 0 81 0;
#X connect 75 0 65 0;
#X connect 75 1 66 0;
#X connect 76 0 74 0;
#X connect 77 0 78 0;
#X connect 78 0 70 0;
#X connect 79 0 61 0;
#X connect 80 0 62 0;
#X connect 81 0 84 0;
#X connect 82 0 2 1;
#X connect 83 0 82 0;
#X connect 83 0 86 0;
#X connect 84 0 67 0;
#X connect 84 0 71 0;
#X connect 86 0 87 0;
#X connect 87 0 85 0;
