#N canvas 270 212 450 474 10;
#X obj 17 343 + 1;
#X obj 17 368 / 2;
#X obj 17 -10 loadbang;
#X obj 17 319 tabread \$1;
#X obj 17 399 s \$1;
#X obj 20 166 hsl 128 15 0 1 0 0 empty empty empty -2 -8 0 10 -262144
-1 -1 6412 1;
#X msg 17 26 on;
#X obj 17 240 * 1000;
#X obj 95 -10 r allhit;
#X obj 17 274 i;
#X obj 17 139 c_mphasor 1 10;
#N canvas 375 165 653 462 speedrange 1;
#X obj 171 9 inlet;
#X obj 118 385 outlet;
#X obj 197 72 random 4;
#X msg 197 201 1600;
#X obj 197 229 /;
#X obj 197 177 t b f;
#X obj 197 150 pow;
#X msg 197 126 2;
#X obj 197 100 t b f;
#X obj 118 71 random 100;
#X obj 118 293 / 1600;
#X obj 118 323 - 0.0625;
#X obj 118 351 / 4;
#X msg 307 295 8;
#X floatatom 50 392 5 0 0 0 - - -;
#X msg 344 296 4;
#X text 388 337 was 8 & 16;
#X text 388 356 for slower sweeps;
#X obj 315 265 sel 0 1 2;
#X obj 315 238 random 3;
#X msg 380 297 2;
#X floatatom 270 381 5 0 0 0 - - -;
#X floatatom 204 352 5 0 0 0 - - -;
#X obj 163 296 / 8;
#X text 188 294 was 16;
#X connect 0 0 2 0;
#X connect 0 0 9 0;
#X connect 0 0 19 0;
#X connect 2 0 8 0;
#X connect 3 0 4 0;
#X connect 4 0 10 1;
#X connect 5 0 3 0;
#X connect 5 1 4 1;
#X connect 6 0 5 0;
#X connect 6 0 23 0;
#X connect 7 0 6 0;
#X connect 8 0 7 0;
#X connect 8 1 6 1;
#X connect 9 0 10 0;
#X connect 10 0 11 0;
#X connect 11 0 12 0;
#X connect 12 0 1 0;
#X connect 12 0 14 0;
#X connect 13 0 12 1;
#X connect 15 0 12 1;
#X connect 18 0 13 0;
#X connect 18 1 15 0;
#X connect 18 2 20 0;
#X connect 19 0 18 0;
#X connect 19 0 21 0;
#X connect 20 0 12 1;
#X connect 23 0 11 1;
#X connect 23 0 22 0;
#X restore 95 23 pd speedrange;
#X obj 17 298 change;
#X connect 0 0 1 0;
#X connect 1 0 4 0;
#X connect 2 0 6 0;
#X connect 3 0 0 0;
#X connect 5 0 7 0;
#X connect 6 0 10 0;
#X connect 7 0 9 0;
#X connect 8 0 11 0;
#X connect 9 0 12 0;
#X connect 10 0 5 0;
#X connect 11 0 10 0;
#X connect 12 0 3 0;
